<?xml version="1.0" encoding="utf-8"?>
<!-- Generator: Adobe Illustrator 15.0.0, SVG Export Plug-In  -->
<!DOCTYPE svg PUBLIC "-//W3C//DTD SVG 1.1//EN" "http://www.w3.org/Graphics/SVG/1.1/DTD/svg11.dtd" [
	<!ENTITY ns_flows "http://ns.adobe.com/Flows/1.0/">
]>
<svg version="1.1"
	 xmlns="http://www.w3.org/2000/svg" xmlns:xlink="http://www.w3.org/1999/xlink" xmlns:a="http://ns.adobe.com/AdobeSVGViewerExtensions/3.0/"
	 x="0px" y="0px" width="206px" height="86px" viewBox="-0.613 -0.54 206 86"
	 overflow="visible" enable-background="new -0.613 -0.54 206 86" xml:space="preserve">
<defs>
</defs>
<rect width="204.389" height="85.039"/>
<path fill="#FFFFFF" d="M9.841,43.319h10.992c0.352,0,0.528,0.192,0.528,0.576c0,0.864,0.304,1.593,0.912,2.185
	c0.607,0.592,1.344,0.888,2.208,0.888c0.832,0,1.567-0.288,2.208-0.864v-0.048c0.607-0.576,0.912-1.296,0.912-2.16V25.607
	c0-0.16,0.055-0.295,0.168-0.408c0.112-0.111,0.231-0.168,0.36-0.168h10.992c0.352,0,0.528,0.192,0.528,0.576v18.672
	c-0.096,4.128-1.608,7.625-4.536,10.488c-2.928,2.864-6.472,4.296-10.632,4.296c-4.224,0-7.808-1.479-10.752-4.439
	c-2.945-2.96-4.416-6.536-4.416-10.729c0-0.159,0-0.24,0-0.24s0.056-0.055,0.168-0.168C9.593,43.376,9.713,43.319,9.841,43.319z
	 M14.713,54.023c2.736,2.624,5.992,3.937,9.768,3.937c3.84,0,7.12-1.32,9.84-3.96c2.72-2.641,4.128-5.88,4.224-9.721v-0.048V26.135
	h-2.544v17.76c0,3.232-1.112,5.96-3.336,8.185c-2.225,2.224-4.952,3.336-8.184,3.336c-3.072,0-5.729-1.063-7.968-3.192
	c-2.24-2.128-3.424-4.728-3.552-7.8h-2.544C10.544,48.2,11.977,51.4,14.713,54.023z M17.281,51.456
	c2.016,1.904,4.416,2.855,7.2,2.855c2.912,0,5.376-1.008,7.392-3.023c2.016-2.017,3.024-4.48,3.024-7.393v-17.76h-2.544v17.76
	c0,2.208-0.761,4.072-2.28,5.592c-1.52,1.521-3.384,2.28-5.592,2.28c-2.081,0-3.872-0.703-5.376-2.112
	c-1.504-1.407-2.321-3.151-2.448-5.231h-2.592C14.192,47.208,15.265,49.552,17.281,51.456z M17.713,44.424
	c0.16,1.76,0.888,3.24,2.184,4.439c1.296,1.2,2.824,1.801,4.584,1.801c1.888,0,3.487-0.656,4.8-1.969
	c1.312-1.312,1.968-2.911,1.968-4.8v-17.76h-2.544v17.76c0,1.152-0.417,2.145-1.248,2.977c-0.8,0.832-1.792,1.248-2.976,1.248
	c-1.056,0-1.984-0.349-2.784-1.046c-0.8-0.697-1.264-1.58-1.392-2.65H17.713z"/>
<path fill="#FFFFFF" d="M73.201,25.031c0.352,0,0.528,0.192,0.528,0.576v32.88c0,0.161-0.048,0.297-0.145,0.408
	c-0.096,0.112-0.224,0.168-0.384,0.168H62.208c-0.191,0-0.353-0.112-0.479-0.336c-1.024,0.224-2.081,0.336-3.168,0.336
	c-4.192,0-7.769-1.488-10.729-4.464c-2.96-2.976-4.44-6.415-4.44-10.32v-0.048V25.607c0-0.16,0.056-0.295,0.168-0.408
	c0.112-0.111,0.232-0.168,0.36-0.168h10.992c0.352,0,0.528,0.192,0.528,0.576v18.288c0,0.864,0.304,1.593,0.912,2.185
	c0.607,0.592,1.344,0.888,2.208,0.888c0.863,0,1.6-0.304,2.208-0.912c0.607-0.576,0.912-1.264,0.912-2.064V25.607
	c0-0.16,0.055-0.295,0.168-0.408c0.111-0.111,0.231-0.168,0.359-0.168H73.201z M44.497,44.231c0,3.648,1.375,6.849,4.128,9.601
	c2.752,2.752,6.064,4.128,9.937,4.128c1.056,0,2.096-0.097,3.12-0.288v-2.688c-1.024,0.288-2.064,0.433-3.12,0.433
	c-3.2,0-5.921-1.12-8.161-3.36c-2.24-2.239-3.36-4.96-3.36-8.16v-17.76h-2.544V44.231z M48.145,43.896
	c0,2.88,1.016,5.336,3.048,7.368c2.032,2.032,4.489,3.048,7.369,3.048c1.087,0,2.128-0.144,3.12-0.432v-2.736
	c-0.96,0.416-2.001,0.624-3.12,0.624c-2.208,0-4.073-0.768-5.592-2.304c-1.521-1.536-2.281-3.392-2.281-5.568v-17.76h-2.544V43.896z
	 M51.792,43.896c0,1.856,0.656,3.448,1.969,4.776c1.312,1.328,2.911,1.992,4.8,1.992c1.119,0,2.16-0.256,3.12-0.769V46.68
	c-0.032,0.032-0.081,0.08-0.145,0.144c-0.832,0.864-1.824,1.297-2.976,1.297c-1.152,0-2.145-0.409-2.977-1.227
	s-1.248-1.804-1.248-2.959V26.135h-2.544V43.896z M62.785,44.022v6.202v0.048v4.039v3.648h2.544V26.135h-2.544V44.022z
	 M66.433,57.96h2.544V26.135h-2.544V57.96z M70.081,57.96h2.544V26.135h-2.544V57.96z"/>
<path fill="#FFFFFF" d="M82.008,29.328c2.928-2.864,6.472-4.297,10.632-4.297c4.225,0,7.808,1.48,10.752,4.44
	s4.416,6.552,4.416,10.776v18.239c0,0.161-0.048,0.297-0.144,0.408c-0.097,0.112-0.225,0.168-0.384,0.168H96.289
	c-0.353,0-0.528-0.191-0.528-0.576V40.248c0-0.896-0.305-1.64-0.912-2.232c-0.608-0.592-1.344-0.888-2.208-0.888
	c-0.832,0-1.568,0.288-2.208,0.863c-0.608,0.641-0.912,1.393-0.912,2.257v18.239c0,0.161-0.048,0.297-0.144,0.408
	c-0.096,0.112-0.225,0.168-0.384,0.168H78c-0.353,0-0.528-0.191-0.528-0.576V39.863C77.568,35.704,79.081,32.192,82.008,29.328z
	 M84.48,32.021c2.24-2.228,4.96-3.342,8.16-3.342c3.232,0,5.96,1.114,8.185,3.342c2.224,2.228,3.336,4.96,3.336,8.197V57.96h2.544
	V40.248c0-3.937-1.368-7.272-4.104-10.009c-2.735-2.735-6.056-4.104-9.96-4.104s-7.224,1.376-9.96,4.128
	c-2.735,2.753-4.104,5.952-4.104,9.6V57.96h2.544V40.219C81.121,36.981,82.24,34.249,84.48,32.021z M87.065,34.612
	c1.531-1.522,3.382-2.284,5.552-2.284c2.201,0,4.06,0.762,5.574,2.284c1.516,1.522,2.273,3.39,2.273,5.603V57.96h2.592V40.248
	c0-2.912-1.008-5.384-3.023-7.416c-2.017-2.032-4.48-3.049-7.393-3.049s-5.376,1.017-7.392,3.049
	c-2.017,2.032-3.024,4.504-3.024,7.416V57.96h2.544V40.215C84.768,38.002,85.534,36.135,87.065,34.612z M85.873,57.96h2.592V40.248
	c0-1.184,0.399-2.191,1.2-3.024c0.799-0.8,1.792-1.2,2.976-1.2s2.185,0.408,3,1.225c0.816,0.815,1.225,1.816,1.225,3V57.96h2.544
	V40.248c0-1.92-0.656-3.528-1.969-4.824s-2.912-1.944-4.8-1.944c-1.889,0-3.488,0.656-4.8,1.968
	c-1.312,1.312-1.968,2.913-1.968,4.801V57.96z"/>
<path fill="#FFFFFF" d="M141.888,36.552c0,0.384-0.177,0.576-0.528,0.576h-7.344c-0.833,0-1.553,0.288-2.16,0.863h-0.048
	c-0.576,0.641-0.864,1.393-0.864,2.257v3.647c0,0.864,0.304,1.593,0.912,2.185c0.607,0.592,1.327,0.888,2.16,0.888h7.344
	c0.16,0,0.288,0.057,0.384,0.168c0.097,0.112,0.145,0.248,0.145,0.408v10.943c0,0.161-0.048,0.297-0.145,0.408
	c-0.096,0.112-0.224,0.168-0.384,0.168h-7.344c-4.032,0-7.505-1.392-10.416-4.176v3.6c0,0.161-0.048,0.297-0.145,0.408
	c-0.096,0.112-0.224,0.168-0.384,0.168H112.08c-0.353,0-0.527-0.191-0.527-0.576v-32.88c0-0.16,0.056-0.295,0.168-0.408
	c0.111-0.111,0.231-0.168,0.359-0.168h10.992c0.352,0,0.528,0.192,0.528,0.576v3.553c2.911-2.752,6.384-4.129,10.416-4.129h7.344
	c0.16,0,0.288,0.057,0.384,0.168c0.097,0.113,0.145,0.249,0.145,0.408V36.552z M112.608,57.96h2.592V26.135h-2.592V57.96z
	 M116.304,57.96h2.544V26.135h-2.544V57.96z M119.952,26.135V57.96h2.544v-4.368v-0.048v-0.048V30.552v-0.048v-4.369H119.952z
	 M134.016,26.135c-4.16,0-7.632,1.537-10.416,4.609v4.512c0.544-1.16,1.296-2.224,2.256-3.191c2.271-2.256,4.992-3.385,8.16-3.385
	h6.768v-2.544H134.016z M134.016,29.783c-2.849,0-5.272,0.984-7.272,2.952c-2,1.969-3.048,4.36-3.144,7.177v0.048v4.176
	c0,2.816,1.039,5.216,3.12,7.2c2.079,1.984,4.512,2.976,7.296,2.976h6.768v-2.544h-6.79c-2.184,0-4.037-0.77-5.562-2.31
	c-1.525-1.539-2.287-3.4-2.287-5.582v-3.657c0-2.213,0.762-4.081,2.287-5.605c1.525-1.523,3.379-2.285,5.562-2.285h6.79v-2.545
	H134.016z M134.016,55.416c-3.168,0-5.889-1.136-8.16-3.408c-0.96-0.96-1.712-2-2.256-3.12v4.464
	c3.104,3.072,6.576,4.608,10.416,4.608h6.768v-2.544H134.016z M129.281,35.447c-1.323,1.312-1.984,2.913-1.984,4.801v3.647
	c0,1.856,0.661,3.448,1.984,4.776c1.322,1.328,2.91,1.992,4.759,1.992h6.744v-2.593h-6.768c-1.152,0-2.136-0.41-2.952-1.234
	c-0.816-0.823-1.224-1.815-1.224-2.978v-3.681c0-1.194,0.399-2.211,1.199-3.051c0.832-0.736,1.824-1.104,2.977-1.104h6.768v-2.544
	h-6.744C132.191,33.479,130.603,34.136,129.281,35.447z"/>
<path fill="#FFFFFF" d="M157.583,58.487c0,0.161-0.048,0.297-0.144,0.408c-0.097,0.112-0.225,0.168-0.385,0.168h-10.991
	c-0.353,0-0.528-0.191-0.528-0.576v-32.88c0-0.16,0.056-0.295,0.168-0.408c0.111-0.111,0.231-0.168,0.36-0.168h10.991
	c0.353,0,0.528,0.192,0.528,0.576V58.487z M146.639,57.96h2.544V26.135h-2.544V57.96z M150.288,57.96h2.544V26.135h-2.544V57.96z
	 M153.935,57.96h2.545V26.135h-2.545V57.96z"/>
<path fill="#FFFFFF" d="M165.647,29.472c2.944-2.96,6.528-4.44,10.752-4.44c4.192,0,7.776,1.488,10.752,4.465
	c2.016,2.016,3.344,4.336,3.984,6.96c0.288,1.216,0.432,2.32,0.432,3.312v4.128c0,0.129-0.048,0.248-0.144,0.36
	c-0.097,0.112-0.225,0.168-0.385,0.168h-17.712c0.128,0.736,0.488,1.344,1.08,1.824c0.592,0.479,1.256,0.72,1.992,0.72h14.64
	c0.16,0,0.288,0.064,0.385,0.192c0.096,0.128,0.144,0.256,0.144,0.384v10.943c0,0.161-0.048,0.297-0.144,0.408
	c-0.097,0.112-0.225,0.168-0.385,0.168h-14.64c-4.192,0-7.769-1.488-10.728-4.464c-2.961-2.976-4.44-6.415-4.44-10.32v-0.048v-3.983
	C161.231,36.023,162.703,32.432,165.647,29.472z M168.239,32.063c2.24-2.224,4.96-3.336,8.16-3.336c3.199,0,5.92,1.112,8.16,3.336
	c2.239,2.225,3.359,4.952,3.359,8.185v3.071h2.593v-3.552c0-0.96-0.145-1.983-0.433-3.072c-0.608-2.41-1.859-4.564-3.751-6.461
	c-2.756-2.765-6.073-4.147-9.952-4.147c-3.911,0-7.237,1.37-9.978,4.111c-2.74,2.74-4.11,6.081-4.11,10.022v3.99
	c0,3.653,1.38,6.858,4.142,9.614c2.762,2.757,6.085,4.135,9.97,4.135h14.112v-2.544H176.42c-3.206,0-5.932-1.12-8.175-3.36
	c-2.244-2.239-3.366-4.96-3.366-8.16v-3.647C164.879,37.016,165.999,34.288,168.239,32.063z M184.271,40.234v3.085h2.544v-3.071
	c0-2.912-1.017-5.384-3.048-7.416c-2.032-2.032-4.488-3.049-7.368-3.049c-2.912,0-5.376,1.017-7.392,3.049
	c-2.017,2.032-3.024,4.504-3.024,7.416v3.647c0,2.88,1.018,5.336,3.055,7.368c2.035,2.032,4.496,3.048,7.382,3.048h14.092v-2.544
	h-14.095c-2.213,0-4.082-0.77-5.604-2.31c-1.523-1.539-2.285-3.4-2.285-5.582v-3.657c0-2.213,0.769-4.081,2.305-5.605
	c1.535-1.523,3.391-2.285,5.567-2.285c2.176,0,4.032,0.763,5.568,2.29S184.271,38.018,184.271,40.234z M171.599,35.447
	c-1.312,1.312-1.968,2.913-1.968,4.801v3.647c0,1.856,0.657,3.448,1.973,4.776c1.314,1.328,2.918,1.992,4.811,1.992h14.097v-2.593
	h-14.101c-1.155,0-2.15-0.41-2.984-1.234c-0.834-0.823-1.251-1.815-1.251-2.978V40.13c0-1.162,0.415-2.162,1.248-3.002
	c0.799-0.736,1.792-1.104,2.976-1.104h0.097c1.151,0,2.127,0.416,2.928,1.248c0.799,0.833,1.2,1.809,1.2,2.928v3.12h2.544v-3.071
	c0-1.28-0.288-2.416-0.864-3.408c-0.32-0.512-0.688-0.976-1.104-1.393c-1.312-1.312-2.912-1.968-4.8-1.968
	C174.51,33.479,172.911,34.136,171.599,35.447z M173.279,40.728v2.592h6.24v-2.592H173.279z M176.419,37.128
	c-0.84,0-1.583,0.288-2.229,0.863c-0.479,0.513-0.768,1.073-0.864,1.681h6.192c-0.291-1.632-1.291-2.479-3.003-2.544H176.419z"/>
</svg>
